<svg width="21" height="21" viewBox="0 0 21 21" fill="none" xmlns="http://www.w3.org/2000/svg">
<path d="M6.56448 12.2778H9.43201C10.4285 11.1751 11.8273 10.5205 13.3126 10.462V0.21089L12.3127 1.01035C12.2165 1.0874 12.0797 1.0874 11.9833 1.01035L10.7202 0L9.45706 1.01035C9.36079 1.0874 9.22386 1.0874 9.1276 1.01035L7.86448 0L6.60154 1.01035C6.50528 1.0874 6.36835 1.0874 6.27208 1.01035L5.00914 0L3.7462 1.01035C3.64993 1.0874 3.51317 1.0874 3.41674 1.01035L2.4184 0.21089V19.8249L3.41811 19.0254C3.51437 18.9484 3.65114 18.9484 3.74757 19.0254L5.01068 20.0358L6.2738 19.0254C6.37023 18.9484 6.50699 18.9484 6.60326 19.0254L7.86637 20.0358L8.9838 19.1418C7.65943 17.2342 7.6699 14.7018 9.00988 12.8051H6.56448C6.41897 12.8051 6.30091 12.6871 6.30091 12.5415C6.30091 12.3959 6.41897 12.278 6.56448 12.278V12.2778ZM9.32922 2.21255H12.094C12.2395 2.21255 12.3575 2.33061 12.3575 2.47612C12.3575 2.62163 12.2395 2.73969 12.094 2.73969H9.32922C9.18371 2.73969 9.06565 2.62163 9.06565 2.47612C9.06565 2.33061 9.18371 2.21255 9.32922 2.21255ZM9.32922 3.32929H12.094C12.2395 3.32929 12.3575 3.44735 12.3575 3.59286C12.3575 3.73837 12.2395 3.85643 12.094 3.85643H9.32922C9.18371 3.85643 9.06565 3.73837 9.06565 3.59286C9.06565 3.44735 9.18371 3.32929 9.32922 3.32929ZM9.32922 4.44603H12.094C12.2395 4.44603 12.3575 4.56409 12.3575 4.7096C12.3575 4.85511 12.2395 4.97317 12.094 4.97317H9.32922C9.18371 4.97317 9.06565 4.85511 9.06565 4.7096C9.06565 4.56409 9.18371 4.44603 9.32922 4.44603ZM9.32922 5.56277H12.094C12.2395 5.56277 12.3575 5.68083 12.3575 5.82634C12.3575 5.97203 12.2395 6.08991 12.094 6.08991H9.32922C9.18371 6.08991 9.06565 5.97203 9.06565 5.82634C9.06565 5.68083 9.18371 5.56277 9.32922 5.56277ZM12.3575 7.75113C12.3575 7.89681 12.2395 8.0147 12.094 8.0147H6.56448C6.41897 8.0147 6.30091 7.89681 6.30091 7.75113C6.30091 7.60561 6.41897 7.48756 6.56448 7.48756H12.094C12.2395 7.48756 12.3575 7.60561 12.3575 7.75113ZM3.63689 9.66321H3.73899C3.88451 9.66321 4.00256 9.7811 4.00256 9.92678C4.00256 10.0723 3.88451 10.1904 3.73899 10.1904H3.63689C3.49138 10.1904 3.37332 10.0723 3.37332 9.92678C3.37332 9.7811 3.49138 9.66321 3.63689 9.66321ZM3.37332 7.75113C3.37332 7.60561 3.49138 7.48756 3.63689 7.48756H3.73899C3.88451 7.48756 4.00256 7.60561 4.00256 7.75113C4.00256 7.89681 3.88451 8.0147 3.73899 8.0147H3.63689C3.49138 8.0147 3.37332 7.89681 3.37332 7.75113ZM3.63689 12.2778H3.73899C3.88451 12.2778 4.00256 12.3959 4.00256 12.5414C4.00256 12.6871 3.88451 12.8049 3.73899 12.8049H3.63689C3.49138 12.8049 3.37332 12.6871 3.37332 12.5414C3.37332 12.3959 3.49138 12.2778 3.63689 12.2778ZM4.28552 15.9462C4.73785 15.946 5.12188 16.2775 5.18794 16.725C5.25401 17.1726 4.9822 17.6007 4.54909 17.7314V17.8929C4.54909 18.0386 4.43104 18.1565 4.28552 18.1565C4.14001 18.1565 4.02195 18.0386 4.02195 17.8929V17.7314C3.63724 17.6148 3.37384 17.2604 3.37332 16.8584C3.37332 16.7129 3.49138 16.5948 3.63689 16.5948C3.78241 16.5948 3.90046 16.7129 3.90046 16.8584C3.90081 17.0691 4.07034 17.2407 4.28106 17.2433H4.28552H4.28981C4.50259 17.2421 4.67384 17.0687 4.67264 16.8561C4.67144 16.6434 4.49813 16.4721 4.28552 16.4733C3.8332 16.4733 3.44917 16.1418 3.3831 15.6944C3.31704 15.2469 3.58885 14.8186 4.02195 14.6879V14.5561C4.02195 14.4106 4.13984 14.2925 4.28552 14.2925C4.43104 14.2925 4.54909 14.4106 4.54909 14.5561V14.6879C4.93381 14.8045 5.19721 15.1589 5.19772 15.5609C5.19772 15.7066 5.07967 15.8245 4.93415 15.8245C4.78864 15.8245 4.67058 15.7066 4.67058 15.5609C4.67058 15.3483 4.49813 15.1759 4.28552 15.1759C4.07275 15.1759 3.90029 15.3483 3.90029 15.5609C3.90029 15.7737 4.07275 15.9462 4.28552 15.9462ZM5.52925 12.8053H4.75775C4.61224 12.8053 4.49418 12.6872 4.49418 12.5417C4.49418 12.396 4.61224 12.2781 4.75775 12.2781H5.52925C5.67476 12.2781 5.79282 12.396 5.79282 12.5417C5.79282 12.6872 5.67476 12.8053 5.52925 12.8053ZM4.75775 9.66338H5.52925C5.67476 9.66338 5.79282 9.78144 5.79282 9.92695C5.79282 10.0725 5.67476 10.1905 5.52925 10.1905H4.75775C4.61224 10.1905 4.49418 10.0725 4.49418 9.92695C4.49418 9.78144 4.61224 9.66338 4.75775 9.66338ZM4.49418 7.75147C4.49418 7.60578 4.61224 7.4879 4.75775 7.4879H5.52925C5.67476 7.4879 5.79282 7.60578 5.79282 7.75147C5.79282 7.89698 5.67476 8.01504 5.52925 8.01504H4.75775C4.61224 8.01504 4.49418 7.89681 4.49418 7.75113V7.75147ZM6.37195 14.6879V14.5561C6.37195 14.4106 6.48984 14.2925 6.63552 14.2925C6.78103 14.2925 6.89909 14.4106 6.89909 14.5561V14.6879C7.28381 14.8045 7.54703 15.1589 7.54772 15.5609C7.54772 15.7066 7.42966 15.8245 7.28415 15.8245C7.13864 15.8245 7.02058 15.7066 7.02058 15.5609C7.02058 15.3483 6.84813 15.1759 6.63552 15.1759C6.42274 15.1759 6.25029 15.3483 6.25029 15.5609C6.25029 15.7737 6.42274 15.9462 6.63552 15.9462C7.08784 15.946 7.47187 16.2775 7.53794 16.725C7.604 17.1726 7.33202 17.6007 6.89909 17.7314V17.8929C6.89909 18.0386 6.78103 18.1565 6.63552 18.1565C6.48984 18.1565 6.37195 18.0386 6.37195 17.8929V17.7314C5.98706 17.6148 5.72383 17.2604 5.72315 16.8584C5.72315 16.7129 5.84121 16.5948 5.98672 16.5948C6.13223 16.5948 6.25029 16.7129 6.25029 16.8584C6.25063 17.0691 6.42017 17.2407 6.63106 17.2433H6.63535H6.63981C6.85242 17.2421 7.02384 17.0687 7.02264 16.8561C7.02144 16.6434 6.84795 16.4721 6.63535 16.4733C6.18302 16.4735 5.79882 16.142 5.73276 15.6944C5.66669 15.2469 5.93867 14.8184 6.37178 14.6879H6.37195ZM3.63689 6.08991C3.49138 6.08991 3.37332 5.97203 3.37332 5.82634V2.47612C3.37332 2.33061 3.49138 2.21255 3.63689 2.21255H7.98786C8.13337 2.21255 8.25143 2.33061 8.25143 2.47612V5.82634C8.25143 5.97203 8.13337 6.08991 7.98786 6.08991H3.63689ZM6.56448 9.66321H12.094C12.2395 9.66321 12.3575 9.7811 12.3575 9.92678C12.3575 10.0723 12.2395 10.1904 12.094 10.1904H6.56448C6.41897 10.1904 6.30091 10.0723 6.30091 9.92678C6.30091 9.7811 6.41897 9.66321 6.56448 9.66321Z" fill="#102BB8"/>
<path d="M13.5322 21C16.2978 21 18.5401 18.7579 18.5401 15.9921C18.5401 13.2264 16.2978 10.9843 13.5322 10.9843C10.7665 10.9843 8.52441 13.2264 8.52441 15.9921C8.5275 18.7565 10.7677 20.9969 13.5322 21ZM11.3624 16.3628C11.4616 16.2562 11.6284 16.2502 11.735 16.3494L13.2687 17.7767V13.6022C13.2687 13.4565 13.3866 13.3386 13.5322 13.3386C13.6778 13.3386 13.7958 13.4565 13.7958 13.6022V17.7767L15.3294 16.3494C15.4359 16.2502 15.6027 16.2562 15.7019 16.3628C15.8011 16.4694 15.7951 16.6361 15.6885 16.7353L13.7117 18.5752C13.6105 18.6694 13.4538 18.6694 13.3526 18.5752L11.3758 16.7353C11.2693 16.6361 11.2632 16.4694 11.3624 16.3628Z" fill="#102BB8"/>
<path d="M3.90045 2.73969H7.72428V5.56277H3.90045V2.73969Z" fill="#102BB8"/>
<rect x="2.51999" y="13.44" width="5.04" height="5.04" fill="#102BB8"/>
</svg>
